<?xml version="1.0" encoding="UTF-8" standalone="no"?>
<svg
   xmlns:dc="http://purl.org/dc/elements/1.1/"
   xmlns:cc="http://creativecommons.org/ns#"
   xmlns:rdf="http://www.w3.org/1999/02/22-rdf-syntax-ns#"
   xmlns:svg="http://www.w3.org/2000/svg"
   xmlns="http://www.w3.org/2000/svg"
   xmlns:sodipodi="http://sodipodi.sourceforge.net/DTD/sodipodi-0.dtd"
   xmlns:inkscape="http://www.inkscape.org/namespaces/inkscape"
   width="117.86726mm"
   height="117.86722mm"
   viewBox="0 0 117.86726 117.86722"
   version="1.1"
   id="svg4670"
   inkscape:version="1.0 (4035a4fb49, 2020-05-01)"
   sodipodi:docname="clock.svg">
  <defs
     id="defs4664" />
  <sodipodi:namedview
     id="base"
     pagecolor="#ffffff"
     bordercolor="#666666"
     borderopacity="1.0"
     inkscape:pageopacity="0.0"
     inkscape:pageshadow="2"
     inkscape:zoom="0.98994949"
     inkscape:cx="222.90445"
     inkscape:cy="314.06442"
     inkscape:document-units="mm"
     inkscape:current-layer="layer1"
     inkscape:document-rotation="0"
     showgrid="false"
     inkscape:window-width="1274"
     inkscape:window-height="1040"
     inkscape:window-x="208"
     inkscape:window-y="0"
     inkscape:window-maximized="0" />
  <metadata
     id="metadata4667">
    <rdf:RDF>
      <cc:Work
         rdf:about="">
        <dc:format>image/svg+xml</dc:format>
        <dc:type
           rdf:resource="http://purl.org/dc/dcmitype/StillImage" />
        <dc:title />
      </cc:Work>
    </rdf:RDF>
  </metadata>
  <g
     inkscape:label="Layer 1"
     inkscape:groupmode="layer"
     id="layer1"
     transform="translate(-12.206463,-121.73169)">
    <g
       id="g899">
      <path
         id="path4073-7"
         style="color:#000000;font-style:normal;font-variant:normal;font-weight:normal;font-stretch:normal;font-size:medium;line-height:normal;font-family:sans-serif;font-variant-ligatures:normal;font-variant-position:normal;font-variant-caps:normal;font-variant-numeric:normal;font-variant-alternates:normal;font-variant-east-asian:normal;font-feature-settings:normal;font-variation-settings:normal;text-indent:0;text-align:start;text-decoration:none;text-decoration-line:none;text-decoration-style:solid;text-decoration-color:#000000;letter-spacing:normal;word-spacing:normal;text-transform:none;writing-mode:lr-tb;direction:ltr;text-orientation:mixed;dominant-baseline:auto;baseline-shift:baseline;text-anchor:start;white-space:normal;shape-padding:0;shape-margin:0;inline-size:0;clip-rule:nonzero;display:inline;overflow:visible;visibility:visible;opacity:1;isolation:auto;mix-blend-mode:normal;color-interpolation:sRGB;color-interpolation-filters:linearRGB;solid-color:#000000;solid-opacity:1;vector-effect:none;fill:#000000;fill-opacity:1;fill-rule:nonzero;stroke:none;stroke-width:0.352777;stroke-linecap:butt;stroke-linejoin:miter;stroke-miterlimit:4;stroke-dasharray:none;stroke-dashoffset:0;stroke-opacity:1;color-rendering:auto;image-rendering:auto;shape-rendering:auto;text-rendering:auto;enable-background:accumulate;stop-color:#000000;stop-opacity:1"
         d="m 68.745395,121.78048 -0.351402,0.0155 0.0641,1.47226 a 57.459605,57.459605 0 0 1 0.351399,-0.015 z m 4.789379,0 -0.0641,1.47278 a 57.459605,57.459605 0 0 1 0.35139,0.0155 l 0.0641,-1.47278 z m -7.355631,0.1602 -0.351909,0.0315 0.128669,1.46761 a 57.459605,57.459605 0 0 1 0.35192,-0.0305 z m 9.921872,0 -0.128672,1.46864 a 57.459605,57.459605 0 0 1 0.351401,0.031 l 0.12868,-1.46812 z m -15.021822,0.65629 -0.34726,0.0605 0.256309,1.45262 a 57.459605,57.459605 0 0 1 0.346753,-0.0615 z m 20.121261,0 -0.255799,1.45159 a 57.459605,57.459605 0 0 1 0.34726,0.061 l 0.256318,-1.45211 z m -22.644621,0.49403 -0.343639,0.0765 0.318839,1.43918 a 57.459605,57.459605 0 0 1 0.34417,-0.0765 z m 25.167985,0 -0.318853,1.43918 a 57.459605,57.459605 0 0 1 0.343653,0.076 l 0.31884,-1.43867 z m -30.136665,1.31671 -0.33797,0.10542 0.443391,1.4056 a 57.459605,57.459605 0 0 1 0.337439,-0.10645 z m 35.105355,0 -0.44287,1.40457 a 57.459605,57.459605 0 0 1 0.33745,0.10645 l 0.44338,-1.4056 z m -37.542934,0.81804 -0.331761,0.12144 0.50384,1.38441 a 57.459605,57.459605 0 0 1 0.33228,-0.12092 z m 39.980504,0 -0.50436,1.38493 a 57.459605,57.459605 0 0 1 0.3328,0.12092 l 0.50383,-1.38441 z m -44.736284,1.95337 -0.3204,0.15038 0.6227,1.33532 a 57.459605,57.459605 0 0 1 0.3204,-0.14987 z m 49.492074,0 -0.62271,1.33583 a 57.459605,57.459605 0 0 1 0.3204,0.14935 l 0.62269,-1.3348 z m -51.802535,1.13068 -0.312639,0.16226 0.68109,1.30793 a 57.459605,57.459605 0 0 1 0.312129,-0.16278 z m 54.113495,0 -0.68057,1.30793 a 57.459605,57.459605 0 0 1 0.31212,0.16226 l 0.68058,-1.30793 z m -58.572655,2.55695 -0.296619,0.18913 0.792199,1.24334 a 57.459605,57.459605 0 0 1 0.296619,-0.18914 z m 63.031307,0 -0.79169,1.24282 a 57.459605,57.459605 0 0 1 0.29715,0.18913 l 0.79168,-1.24282 z m -65.173807,1.42162 -0.28887,0.20309 0.84542,1.20767 a 57.459605,57.459605 0 0 1 0.28888,-0.20309 z m 67.316307,0 -0.84595,1.20767 a 57.459605,57.459605 0 0 1 0.28991,0.20309 l 0.84543,-1.20767 z m -71.403917,3.11919 -0.26975,0.22634 0.94671,1.12809 a 57.459605,57.459605 0 0 1 0.26976,-0.22634 z m 75.492037,0 -0.94671,1.12861 a 57.459605,57.459605 0 0 1 0.26975,0.22582 l 0.94671,-1.12809 z m -77.429897,1.6893 -0.26148,0.23823 0.9958,1.08675 a 57.459605,57.459605 0 0 1 0.26097,-0.23926 z m 79.367247,0 -0.99529,1.08572 a 57.459605,57.459605 0 0 1 0.26148,0.23926 l 0.99581,-1.08675 z m -83.013537,3.62303 -0.23823,0.262 1.08572,0.99477 a 57.459605,57.459605 0 0 1 0.23926,-0.26096 z m 86.660337,0 -1.08675,0.99581 a 57.459605,57.459605 0 0 1 0.23926,0.26096 l 1.08572,-0.99477 z m -88.361527,1.9296 -0.22634,0.26975 1.12809,0.94671 a 57.459605,57.459605 0 0 1 0.22635,-0.26975 z m 90.062717,0 -1.12861,0.94671 a 57.459605,57.459605 0 0 1 0.22634,0.26975 l 1.12862,-0.94671 z m -93.205157,4.06849 -0.20309,0.28938 1.20768,0.84543 a 57.459605,57.459605 0 0 1 0.20309,-0.28939 z m 96.347607,0 -1.20768,0.84542 a 57.459605,57.459605 0 0 1 0.20308,0.28939 l 1.20769,-0.84543 z m -97.783187,2.13475 -0.18965,0.29714 1.24334,0.7922 a 57.459605,57.459605 0 0 1 0.18913,-0.29766 z m 99.218757,0 -1.24333,0.7922 a 57.459605,57.459605 0 0 1 0.18913,0.29662 l 1.24334,-0.79168 z m -101.803087,4.44366 -0.16175,0.31212 1.30793,0.68058 a 57.459605,57.459605 0 0 1 0.16226,-0.31161 z m 104.386907,0 -1.30793,0.68109 a 57.459605,57.459605 0 0 1 0.16226,0.31161 l 1.30793,-0.68058 z m -105.529477,2.3027 -0.15038,0.32039 1.33584,0.62322 a 57.459605,57.459605 0 0 1 0.14986,-0.32091 z m 106.672047,0 -1.3348,0.6227 a 57.459605,57.459605 0 0 1 0.14934,0.32039 l 1.33584,-0.6227 z m -108.654357,4.74389 -0.12092,0.33228 1.38493,0.50437 a 57.459605,57.459605 0 0 1 0.12092,-0.33228 z m 110.636667,0 -1.38442,0.50385 a 57.459605,57.459605 0 0 1 0.12093,0.33228 l 1.38492,-0.50385 z m -111.470717,2.4319 -0.10542,0.33796 1.40508,0.44287 a 57.459605,57.459605 0 0 1 0.10645,-0.33745 z m 112.304767,0 -1.4056,0.44338 a 57.459605,57.459605 0 0 1 0.10646,0.33745 l 1.40456,-0.44287 z m -113.650427,4.96249 -0.076,0.34416 1.43919,0.31884 a 57.459605,57.459605 0 0 1 0.076,-0.34364 z m 114.996087,0 -1.43919,0.31884 a 57.459605,57.459605 0 0 1 0.0765,0.34416 l 1.43919,-0.31884 z m -115.505617,2.51974 -0.0605,0.34778 1.45159,0.2558 a 57.459605,57.459605 0 0 1 0.061,-0.34727 z m 116.015657,0 -1.45262,0.25631 a 57.459605,57.459605 0 0 1 0.0615,0.34727 l 1.45159,-0.2558 z m -116.701397,5.09581 -0.031,0.3514 1.46864,0.12867 a 57.459605,57.459605 0 0 1 0.031,-0.35139 z m 117.386627,0 -1.46812,0.12868 a 57.459605,57.459605 0 0 1 0.0305,0.35139 l 1.46917,-0.12867 z m -117.562327,2.56625 -0.0155,0.3514 1.47227,0.0641 a 57.459605,57.459605 0 0 1 0.0155,-0.3514 z m 117.738547,0 -1.47226,0.0641 a 57.459605,57.459605 0 0 1 0.015,0.3514 l 1.47278,-0.0641 z m -116.281277,5.0767 -1.47278,0.0641 0.0155,0.35139 1.47226,-0.0641 a 57.459605,57.459605 0 0 1 -0.015,-0.35139 z m 114.823997,0 a 57.459605,57.459605 0 0 1 -0.0155,0.35139 l 1.47278,0.0641 0.0155,-0.3514 z m -114.667937,2.50165 -1.46864,0.12868 0.031,0.35191 1.46812,-0.12867 a 57.459605,57.459605 0 0 1 -0.0305,-0.35192 z m 114.511877,0 a 57.459605,57.459605 0 0 1 -0.031,0.35192 l 1.46812,0.12867 0.0315,-0.35191 z m -113.872637,4.97282 -1.45159,0.2558 0.0605,0.34727 1.45211,-0.25632 a 57.459605,57.459605 0 0 1 -0.061,-0.34675 z m 113.233397,0 a 57.459605,57.459605 0 0 1 -0.061,0.34675 l 1.45211,0.25632 0.0605,-0.34727 z m -112.751767,2.46032 -1.43919,0.31885 0.076,0.34365 1.43919,-0.31884 a 57.459605,57.459605 0 0 1 -0.076,-0.34366 z m 112.270147,0 a 57.459605,57.459605 0 0 1 -0.076,0.34366 l 1.43867,0.31884 0.0765,-0.34365 z m -110.988057,4.84466 -1.40508,0.44287 0.10542,0.3359 1.4056,-0.44339 a 57.459605,57.459605 0 0 1 -0.10594,-0.33538 z m 109.705967,0 a 57.459605,57.459605 0 0 1 -0.10594,0.3359 l 1.40508,0.44287 0.10542,-0.3359 z m -108.907567,2.37609 -1.38493,0.50436 0.12092,0.33176 1.38493,-0.50436 a 57.459605,57.459605 0 0 1 -0.12092,-0.33176 z m 108.108647,0 a 57.459605,57.459605 0 0 1 -0.12041,0.33228 l 1.38442,0.50384 0.12143,-0.33175 z m -106.204367,4.63692 -1.33636,0.62322 0.15038,0.32039 1.33532,-0.6227 a 57.459605,57.459605 0 0 1 -0.14934,-0.32091 z m 104.300607,5.3e-4 a 57.459605,57.459605 0 0 1 -0.14935,0.32039 l 1.33481,0.6227 0.15038,-0.32039 z m -103.198357,2.25257 -1.30741,0.68058 0.16175,0.31264 1.30793,-0.68109 a 57.459605,57.459605 0 0 1 -0.16227,-0.31213 z m 102.096097,0 a 57.459605,57.459605 0 0 1 -0.16278,0.31213 l 1.30793,0.68109 0.16226,-0.31264 z m -99.603737,4.34754 -1.24334,0.7922 0.18965,0.29662 1.24282,-0.79168 a 57.459605,57.459605 0 0 1 -0.18913,-0.29714 z m 97.110867,0 a 57.459605,57.459605 0 0 1 -0.18862,0.29714 l 1.24282,0.79168 0.18914,-0.29662 z m -1.38597,2.08876 a 57.459605,57.459605 0 0 1 -0.20256,0.28939 l 1.20716,0.84543 0.20309,-0.28887 z m -94.338417,5.3e-4 -1.20768,0.84543 0.20309,0.28887 1.20716,-0.84543 a 57.459605,57.459605 0 0 1 -0.20257,-0.28887 z m 3.0396,3.98632 -1.12809,0.94671 0.22634,0.26976 1.12861,-0.94672 a 57.459605,57.459605 0 0 1 -0.22686,-0.26975 z m 88.259207,0 a 57.459605,57.459605 0 0 1 -0.22685,0.26975 l 1.12861,0.94672 0.22635,-0.26976 z m -1.64744,1.88929 a 57.459605,57.459605 0 0 1 -0.23874,0.26097 l 1.08675,0.9958 0.23823,-0.26148 z m -84.964837,5.3e-4 -1.08572,0.99477 0.23823,0.26148 1.08675,-0.9958 a 57.459605,57.459605 0 0 1 -0.23926,-0.26045 z m 3.53312,3.55431 -0.9958,1.08675 0.26148,0.23823 0.99477,-1.08572 a 57.459605,57.459605 0 0 1 -0.26045,-0.23926 z m 77.899117,0 a 57.459605,57.459605 0 0 1 -0.26096,0.23926 l 0.99477,1.08572 0.262,-0.23823 z m -1.8805,1.65933 a 57.459605,57.459605 0 0 1 -0.26975,0.22634 l 0.94671,1.12861 0.26975,-0.22634 z m -74.138117,5.3e-4 -0.94671,1.12809 0.26975,0.22635 0.94672,-1.12862 a 57.459605,57.459605 0 0 1 -0.26976,-0.22582 z m 3.9672,3.06337 -0.84542,1.20718 0.28887,0.20308 0.84594,-1.20768 a 57.459605,57.459605 0 0 1 -0.28939,-0.20258 z m 66.203717,0 a 57.459605,57.459605 0 0 1 -0.28938,0.20258 l 0.84542,1.20768 0.28939,-0.20308 z m -64.122708,1.39992 -0.791678,1.24282 0.296619,0.18966 0.792199,-1.24335 a 57.459605,57.459605 0 0 1 -0.29714,-0.18913 z m 62.041708,0 a 57.459605,57.459605 0 0 1 -0.29766,0.18913 l 0.7922,1.24335 0.29714,-0.18966 z m -57.709156,2.51871 -0.68109,1.30845 0.312639,0.16174 0.68058,-1.30741 a 57.459605,57.459605 0 0 1 -0.312129,-0.16278 z m 53.376074,5.3e-4 a 57.459605,57.459605 0 0 1 -0.3116,0.16175 l 0.68057,1.30793 0.31213,-0.16175 z m -51.131764,1.11518 -0.6227,1.33532 0.3204,0.15037 0.623218,-1.33636 a 57.459605,57.459605 0 0 1 -0.320918,-0.14933 z m 48.887464,0 a 57.459605,57.459605 0 0 1 -0.32092,0.14934 l 0.62323,1.33635 0.32038,-0.15037 z m -44.261383,1.93269 -0.504362,1.38493 0.331761,0.12093 0.504359,-1.38545 a 57.459605,57.459605 0 0 1 -0.331758,-0.12041 z m 39.635823,0 a 57.459605,57.459605 0 0 1 -0.33176,0.12093 l 0.50384,1.38493 0.33227,-0.12093 z m -37.265424,0.81287 -0.443391,1.40611 0.33797,0.10542 0.44286,-1.40508 a 57.459605,57.459605 0 0 1 -0.337439,-0.10645 z m 34.894514,0 a 57.459605,57.459605 0 0 1 -0.33745,0.10645 l 0.44287,1.40508 0.33796,-0.10542 z m -30.056055,1.31258 -0.318839,1.4392 0.343639,0.076 0.318852,-1.43919 a 57.459605,57.459605 0 0 1 -0.343652,-0.076 z m 25.217585,0 a 57.459605,57.459605 0 0 1 -0.343653,0.076 l 0.318853,1.43919 0.34364,-0.076 z m -22.760375,0.49662 -0.25631,1.45209 0.34726,0.0605 0.255802,-1.45159 a 57.459605,57.459605 0 0 1 -0.346752,-0.061 z m 20.303672,0 a 57.459605,57.459605 0 0 1 -0.34726,0.061 l 0.255799,1.45159 0.347779,-0.0605 z m -15.336012,0.66921 -0.128669,1.46864 0.351909,0.031 0.12868,-1.46865 a 57.459605,57.459605 0 0 1 -0.35192,-0.031 z m 10.367841,5.3e-4 a 57.459605,57.459605 0 0 1 -0.351401,0.0305 l 0.128672,1.46864 0.351409,-0.031 z m -7.865671,0.17156 -0.0641,1.47226 0.351401,0.0155 0.0641,-1.47226 a 57.459605,57.459605 0 0 1 -0.351401,-0.0155 z m 5.364012,0 a 57.459605,57.459605 0 0 1 -0.351391,0.015 l 0.0641,1.47277 0.351388,-0.0155 z" />
      <path
         id="path3922-3"
         style="color:#000000;font-style:normal;font-variant:normal;font-weight:normal;font-stretch:normal;font-size:medium;line-height:normal;font-family:sans-serif;font-variant-ligatures:normal;font-variant-position:normal;font-variant-caps:normal;font-variant-numeric:normal;font-variant-alternates:normal;font-variant-east-asian:normal;font-feature-settings:normal;font-variation-settings:normal;text-indent:0;text-align:start;text-decoration:none;text-decoration-line:none;text-decoration-style:solid;text-decoration-color:#000000;letter-spacing:normal;word-spacing:normal;text-transform:none;writing-mode:lr-tb;direction:ltr;text-orientation:mixed;dominant-baseline:auto;baseline-shift:baseline;text-anchor:start;white-space:normal;shape-padding:0;shape-margin:0;inline-size:0;clip-rule:nonzero;display:inline;overflow:visible;visibility:visible;opacity:1;isolation:auto;mix-blend-mode:normal;color-interpolation:sRGB;color-interpolation-filters:linearRGB;solid-color:#000000;solid-opacity:1;vector-effect:none;fill:#000000;fill-opacity:1;fill-rule:nonzero;stroke:none;stroke-width:0.705556;stroke-linecap:butt;stroke-linejoin:miter;stroke-miterlimit:4;stroke-dasharray:none;stroke-dashoffset:0;stroke-opacity:1;color-rendering:auto;image-rendering:auto;shape-rendering:auto;text-rendering:auto;enable-background:accumulate;stop-color:#000000;stop-opacity:1"
         d="m 56.228343,123.64992 -0.68213,0.1819 1.14463,4.27106 a 54.512959,54.512959 0 0 1 0.681612,-0.18242 z m 29.824025,0 -1.14413,4.27054 a 54.512959,54.512959 0 0 1 0.68111,0.18242 l 1.14463,-4.27106 z m -56.334045,15.09417 -0.50023,0.49971 3.12694,3.12694 a 54.512959,54.512959 0 0 1 0.49971,-0.50023 z m 82.843537,0 -3.12591,3.1259 a 54.512959,54.512959 0 0 1 0.49971,0.50023 l 3.12642,-3.12642 z m -98.255517,26.32811 -0.1819,0.68161 4.27054,1.14411 a 54.512959,54.512959 0 0 1 0.18242,-0.68109 z m 113.668007,0 -4.27106,1.14463 a 54.512959,54.512959 0 0 1 0.18242,0.68109 l 4.27003,-1.14411 z m -109.579367,29.36151 -4.27054,1.14412 0.1819,0.68161 4.27106,-1.14463 a 54.512959,54.512959 0 0 1 -0.18242,-0.6811 z m 105.491247,0 a 54.512959,54.512959 0 0 1 -0.18294,0.6811 l 4.27106,1.14463 0.18139,-0.68161 z m -91.541717,24.52771 -3.12642,3.12642 0.50023,0.49972 3.12642,-3.12642 a 54.512959,54.512959 0 0 1 -0.50023,-0.49972 z m 77.591667,0 a 54.512959,54.512959 0 0 1 -0.50023,0.49972 l 3.12591,3.12592 0.50022,-0.49972 z m -53.245337,14.26683 -1.14463,4.27107 0.68213,0.18137 1.144112,-4.2695 a 54.512959,54.512959 0 0 1 -0.681612,-0.18294 z m 28.898505,0 a 54.512959,54.512959 0 0 1 -0.68111,0.18242 l 1.14413,4.27001 0.68161,-0.18137 z" />
      <path
         id="path3889-1"
         style="color:#000000;font-style:normal;font-variant:normal;font-weight:normal;font-stretch:normal;font-size:medium;line-height:normal;font-family:sans-serif;font-variant-ligatures:normal;font-variant-position:normal;font-variant-caps:normal;font-variant-numeric:normal;font-variant-alternates:normal;font-variant-east-asian:normal;font-feature-settings:normal;font-variation-settings:normal;text-indent:0;text-align:start;text-decoration:none;text-decoration-line:none;text-decoration-style:solid;text-decoration-color:#000000;letter-spacing:normal;word-spacing:normal;text-transform:none;writing-mode:lr-tb;direction:ltr;text-orientation:mixed;dominant-baseline:auto;baseline-shift:baseline;text-anchor:start;white-space:normal;shape-padding:0;shape-margin:0;inline-size:0;clip-rule:nonzero;display:inline;overflow:visible;visibility:visible;opacity:1;isolation:auto;mix-blend-mode:normal;color-interpolation:sRGB;color-interpolation-filters:linearRGB;solid-color:#000000;solid-opacity:1;vector-effect:none;fill:#000000;fill-opacity:1;fill-rule:nonzero;stroke:none;stroke-width:1.05833;stroke-linecap:butt;stroke-linejoin:miter;stroke-miterlimit:4;stroke-dasharray:none;stroke-dashoffset:0;stroke-opacity:1;color-rendering:auto;image-rendering:auto;shape-rendering:auto;text-rendering:auto;enable-background:accumulate;stop-color:#000000;stop-opacity:1"
         d="m 70.611165,121.73169 v 5.8968 a 53.03964,53.03964 0 0 1 0.529169,-0.003 53.03964,53.03964 0 0 1 0.529169,0.003 v -5.8968 z m -28.478882,7.63106 -0.915689,0.52916 2.94812,5.10615 a 53.03964,53.03964 0 0 1 0.91572,-0.52916 z m 58.015597,0 -2.948142,5.10666 a 53.03964,53.03964 0 0 1 0.91675,0.52865 l 2.947622,-5.10615 z m -79.781187,21.37699 -0.52917,0.91777 5.10667,2.94814 a 53.03964,53.03964 0 0 1 0.52968,-0.91725 z m 101.546797,0 -5.10667,2.94866 a 53.03964,53.03964 0 0 1 0.52967,0.91725 l 5.10667,-2.94814 z M 12.206463,180.13639 v 1.05834 h 5.8968 a 53.03964,53.03964 0 0 1 -0.003,-0.52969 53.03964,53.03964 0 0 1 0.003,-0.52865 z m 111.970957,0 a 53.03964,53.03964 0 0 1 0.003,0.52865 53.03964,53.03964 0 0 1 -0.003,0.52969 h 5.8963 v -1.05834 z m -6.84093,26.58804 a 53.03964,53.03964 0 0 1 -0.52917,0.91674 l 5.10617,2.94814 0.52967,-0.91622 z m -92.392297,5.3e-4 -5.10667,2.94814 0.52917,0.91623 5.10667,-2.94814 a 53.03964,53.03964 0 0 1 -0.52917,-0.91623 z m 19.22001,19.60758 -2.947609,5.10614 0.915689,0.5297 2.948651,-5.1072 a 53.03964,53.03964 0 0 1 -0.916731,-0.52864 z m 53.951755,0 a 53.03964,53.03964 0 0 1 -0.91519,0.52864 l 2.947112,5.10514 0.91623,-0.52764 z m -27.504793,7.36958 v 5.89679 h 1.058338 v -5.89679 a 53.03964,53.03964 0 0 1 -0.529169,0.003 53.03964,53.03964 0 0 1 -0.529169,-0.003 z" />
      <path
         d="m 92.426078,137.03238 c -0.69936,0 -1.23163,0.18775 -1.5968,0.56327 -0.36518,0.37206 -0.54777,0.89572 -0.54777,1.57096 v 3.4158 c 0,0.6718 0.18087,1.19547 0.5426,1.57096 0.36518,0.37553 0.89917,0.56328 1.60197,0.56328 0.69935,0 1.23162,-0.18603 1.5968,-0.55809 0.36518,-0.37552 0.54777,-0.90091 0.54777,-1.57615 v -3.4158 c 0,-0.67868 -0.18259,-1.20406 -0.54777,-1.57615 -0.36173,-0.37205 -0.894,-0.55808 -1.5968,-0.55808 z m 4.46484,0.093 -1.0697,0.71313 v 1.09038 l 1.0697,-0.65628 v 6.36654 h 1.05419 v -7.51377 z m -4.46484,0.9095 c 0.37551,0 0.65112,0.0982 0.82682,0.29457 0.1757,0.19293 0.26354,0.47199 0.26354,0.83716 v 3.4158 c 0,0.36518 -0.0896,0.64595 -0.26871,0.84233 -0.1757,0.19293 -0.44958,0.2894 -0.82165,0.2894 -0.37207,0 -0.64768,-0.0965 -0.82684,-0.2894 -0.17569,-0.19638 -0.26354,-0.47715 -0.26354,-0.84233 v -3.4158 c 0,-0.36517 0.0879,-0.64423 0.26354,-0.83716 0.17571,-0.19638 0.45132,-0.29457 0.82684,-0.29457 z"
         style="font-size:10.5833px;line-height:1.25;font-family:Bahnschrift;-inkscape-font-specification:Bahnschrift;stroke-width:0.264583"
         id="path4471" />
      <path
         d="m 108.08867,153.84995 c -0.69935,0 -1.23162,0.18775 -1.5968,0.56327 -0.36518,0.37206 -0.54777,0.89573 -0.54777,1.57097 v 3.4158 c 0,0.6718 0.18087,1.19546 0.5426,1.57096 0.36518,0.37552 0.89917,0.56326 1.60197,0.56326 0.69935,0 1.23162,-0.18602 1.5968,-0.55808 0.36518,-0.37552 0.54777,-0.9009 0.54777,-1.57614 v -3.4158 c 0,-0.67868 -0.18259,-1.20407 -0.54777,-1.57615 -0.36173,-0.37206 -0.89401,-0.55809 -1.5968,-0.55809 z m 5.66891,0.0155 c -0.39619,0 -0.74587,0.0809 -1.04904,0.24287 -0.30316,0.15848 -0.55122,0.39103 -0.74414,0.69763 -0.18949,0.30318 -0.31524,0.67008 -0.37724,1.10072 v 0.005 h 1.09038 v -0.005 c 0.0413,-0.33073 0.15675,-0.58567 0.34623,-0.76481 0.18948,-0.18259 0.43752,-0.2739 0.74414,-0.2739 0.32383,0 0.57361,0.0827 0.74931,0.24805 0.1757,0.16537 0.26355,0.3979 0.26355,0.69762 v 0.0103 c 0,0.18603 -0.0431,0.38759 -0.12919,0.60463 -0.0827,0.2136 -0.19982,0.42029 -0.35141,0.6201 l -2.61999,3.49332 v 0.91415 h 4.23747 v -1.00252 h -2.84221 l 2.17558,-2.95587 c 0.19637,-0.26871 0.34968,-0.54777 0.45992,-0.83717 0.11025,-0.28937 0.16537,-0.56671 0.16537,-0.83198 v -0.005 c 0,-0.41342 -0.0827,-0.76655 -0.24805,-1.05936 -0.16536,-0.29284 -0.40652,-0.51504 -0.72348,-0.66662 -0.31694,-0.15506 -0.69934,-0.23254 -1.1472,-0.23254 z m -5.66891,0.98701 c 0.37551,0 0.65112,0.0982 0.82682,0.29455 0.1757,0.19294 0.26354,0.47199 0.26354,0.83718 v 3.4158 c 0,0.36517 -0.0896,0.64595 -0.26871,0.84231 -0.1757,0.19295 -0.44958,0.28941 -0.82165,0.28941 -0.37207,0 -0.64768,-0.0965 -0.82682,-0.28941 -0.1757,-0.19636 -0.26355,-0.47714 -0.26355,-0.84231 v -3.4158 c 0,-0.36519 0.0879,-0.64424 0.26355,-0.83718 0.17569,-0.19636 0.4513,-0.29455 0.82682,-0.29455 z"
         style="font-size:10.5833px;line-height:1.25;font-family:Bahnschrift;-inkscape-font-specification:Bahnschrift;stroke-width:0.264583"
         id="path4476" />
      <path
         d="m 114.29916,176.82316 c -0.69935,0 -1.23162,0.18774 -1.5968,0.56327 -0.36517,0.37208 -0.54777,0.89572 -0.54777,1.57096 v 3.41582 c 0,0.67178 0.18087,1.19544 0.5426,1.57097 0.36517,0.37549 0.89917,0.56327 1.60197,0.56327 0.69935,0 1.23162,-0.18606 1.5968,-0.55811 0.36518,-0.37553 0.54777,-0.90088 0.54777,-1.57613 v -3.41582 c 0,-0.67868 -0.18259,-1.20407 -0.54777,-1.57612 -0.36173,-0.37209 -0.894,-0.55811 -1.5968,-0.55811 z m 5.60171,0.0155 c -0.37895,0 -0.71484,0.0758 -1.00767,0.22739 -0.29284,0.15157 -0.53572,0.37377 -0.72864,0.66662 -0.18948,0.29282 -0.31867,0.64422 -0.38758,1.0542 h 1.0697 c 0.0448,-0.21015 0.11542,-0.38413 0.21188,-0.52194 0.0999,-0.14123 0.22049,-0.24459 0.36173,-0.31006 0.14125,-0.0689 0.30145,-0.10336 0.48058,-0.10336 0.31351,0 0.55467,0.081 0.72349,0.24289 0.17225,0.16193 0.25838,0.39103 0.25838,0.68729 v 0.23254 c 0,0.32041 -0.081,0.56846 -0.24288,0.74416 -0.16192,0.17569 -0.3893,0.26352 -0.68213,0.26352 h -0.53227 v 1.00255 h 0.53227 c 0.33417,0 0.59255,0.10334 0.77514,0.31006 0.18259,0.20326 0.27389,0.49265 0.27389,0.86815 v 0.22738 c 0,0.33764 -0.0965,0.59944 -0.28939,0.78549 -0.19293,0.18604 -0.46336,0.27904 -0.81132,0.27904 -0.22049,0 -0.41341,-0.0327 -0.57877,-0.0982 -0.16192,-0.0689 -0.29456,-0.17227 -0.39791,-0.31006 -0.10336,-0.13784 -0.17054,-0.31351 -0.20154,-0.52711 h -1.07487 c 0.0517,0.40996 0.17398,0.76137 0.3669,1.0542 0.19638,0.28938 0.45476,0.5116 0.77515,0.66662 0.32039,0.15158 0.69074,0.22738 1.11104,0.22738 0.45475,0 0.84232,-0.081 1.16272,-0.24289 0.32384,-0.16192 0.57017,-0.39791 0.73896,-0.70797 0.16882,-0.31007 0.25323,-0.68383 0.25323,-1.12138 v -0.124 c 0,-0.48575 -0.11368,-0.88542 -0.34106,-1.19892 -0.22393,-0.31347 -0.54088,-0.51504 -0.95085,-0.60459 0.37207,-0.12748 0.65973,-0.33073 0.863,-0.6098 0.20326,-0.27905 0.30489,-0.60634 0.30489,-0.98184 v -0.12403 c 0,-0.62011 -0.17743,-1.10069 -0.53227,-1.44176 -0.35485,-0.34109 -0.85611,-0.5116 -1.5038,-0.5116 z m -5.60171,0.98704 c 0.37551,0 0.65112,0.0982 0.82682,0.29452 0.1757,0.19294 0.26355,0.47199 0.26355,0.83718 v 3.41581 c 0,0.36518 -0.0896,0.64597 -0.26872,0.84233 -0.1757,0.19291 -0.44958,0.28938 -0.82165,0.28938 -0.37207,0 -0.64768,-0.0965 -0.82682,-0.28938 -0.1757,-0.19636 -0.26355,-0.47715 -0.26355,-0.84233 v -3.41581 c 0,-0.36519 0.0879,-0.64424 0.26355,-0.83718 0.1757,-0.19636 0.45131,-0.29452 0.82682,-0.29452 z"
         style="font-size:10.5833px;line-height:1.25;font-family:Bahnschrift;-inkscape-font-specification:Bahnschrift;stroke-width:0.264583"
         id="path4481" />
      <path
         d="m 107.81212,199.81125 c -0.69935,0 -1.23162,0.18778 -1.5968,0.56327 -0.36518,0.37209 -0.54777,0.89575 -0.54777,1.57097 v 3.41582 c 0,0.67178 0.18086,1.19544 0.5426,1.57097 0.36518,0.37549 0.89917,0.56327 1.60197,0.56327 0.69936,0 1.23163,-0.18603 1.5968,-0.55811 0.36518,-0.3755 0.54778,-0.90088 0.54778,-1.57613 v -3.41582 c 0,-0.67869 -0.1826,-1.20404 -0.54778,-1.57612 -0.36174,-0.37206 -0.89401,-0.55812 -1.5968,-0.55812 z m 6.12365,0.0982 -2.52181,5.44153 v 0.91469 h 3.24012 v 1.15755 h 1.02835 v -1.15755 h 0.56329 v -0.97671 h -0.56329 v -2.28925 h -1.02835 v 2.28925 h -2.09289 l 2.45979,-5.37951 z m -6.12365,0.90435 c 0.37552,0 0.65113,0.0982 0.82683,0.29456 0.1757,0.1929 0.26354,0.47196 0.26354,0.83714 v 3.41582 c 0,0.36518 -0.0896,0.64596 -0.26871,0.84233 -0.1757,0.19291 -0.44959,0.28938 -0.82166,0.28938 -0.37208,0 -0.64768,-0.0965 -0.82683,-0.28938 -0.17569,-0.19637 -0.26354,-0.47715 -0.26354,-0.84233 v -3.41582 c 0,-0.36518 0.0879,-0.64424 0.26354,-0.83714 0.17571,-0.19638 0.45132,-0.29456 0.82683,-0.29456 z"
         style="font-size:10.5833px;line-height:1.25;font-family:Bahnschrift;-inkscape-font-specification:Bahnschrift;stroke-width:0.264583"
         id="path4486" />
      <path
         d="m 91.242048,216.63972 c -0.69936,0 -1.23163,0.18775 -1.5968,0.56327 -0.36518,0.37206 -0.54778,0.89572 -0.54778,1.57096 v 3.4158 c 0,0.6718 0.18088,1.19547 0.54261,1.57096 0.36517,0.37553 0.89918,0.56328 1.60197,0.56328 0.69936,0 1.23162,-0.18603 1.5968,-0.55809 0.36517,-0.37552 0.54777,-0.90091 0.54777,-1.57615 v -3.4158 c 0,-0.67868 -0.1826,-1.20406 -0.54777,-1.57615 -0.36173,-0.37205 -0.894,-0.55808 -1.5968,-0.55808 z m 3.87057,0.093 v 3.95843 h 0.96118 c 0.12746,-0.18606 0.2756,-0.33073 0.44442,-0.4341 0.1688,-0.10335 0.3445,-0.15502 0.52709,-0.15502 0.33763,0 0.59772,0.11369 0.78032,0.34107 0.18602,0.22392 0.27905,0.53914 0.27905,0.94568 v 0.63044 c 0,0.40998 -0.093,0.72864 -0.27905,0.95602 -0.1826,0.22392 -0.44269,0.33589 -0.78032,0.33589 -0.29283,0 -0.53054,-0.0758 -0.71313,-0.22738 -0.18262,-0.15502 -0.29286,-0.37034 -0.33073,-0.64595 v -0.005 h -1.0542 v 0.005 c 0.062,0.39618 0.18431,0.73554 0.36691,1.01803 0.18602,0.2825 0.42546,0.49782 0.7183,0.64596 0.29628,0.14814 0.63389,0.22219 1.01285,0.22219 0.44441,0 0.82511,-0.0896 1.14205,-0.26871 0.31695,-0.18259 0.55811,-0.44614 0.72348,-0.79065 0.16536,-0.34452 0.24804,-0.75965 0.24804,-1.2454 v -0.63044 c 0,-0.48578 -0.081,-0.90091 -0.24288,-1.24543 -0.15847,-0.34448 -0.39274,-0.60631 -0.7028,-0.78546 -0.30661,-0.17915 -0.67696,-0.26871 -1.11105,-0.26871 -0.1688,0 -0.33416,0.0292 -0.49608,0.0878 -0.16192,0.0586 -0.30834,0.14123 -0.43926,0.24804 v -1.68981 h 2.77502 v -1.00253 z m -3.87057,0.9095 c 0.37551,0 0.65112,0.0982 0.82682,0.29456 0.1757,0.19294 0.26355,0.47199 0.26355,0.83717 v 3.4158 c 0,0.36518 -0.0896,0.64595 -0.26871,0.84233 -0.1757,0.19293 -0.4496,0.2894 -0.82166,0.2894 -0.37207,0 -0.64767,-0.0965 -0.82682,-0.2894 -0.17571,-0.19638 -0.26355,-0.47715 -0.26355,-0.84233 v -3.4158 c 0,-0.36518 0.0879,-0.64423 0.26355,-0.83717 0.1757,-0.19637 0.45131,-0.29456 0.82682,-0.29456 z"
         style="font-size:10.5833px;line-height:1.25;font-family:Bahnschrift;-inkscape-font-specification:Bahnschrift;stroke-width:0.264583"
         id="path4491" />
      <path
         d="m 68.342114,222.80011 c -0.699349,0 -1.23162,0.18778 -1.5968,0.56327 -0.365181,0.37209 -0.54777,0.89572 -0.54777,1.57097 v 3.41582 c 0,0.67178 0.18087,1.19544 0.5426,1.57097 0.36518,0.37549 0.899178,0.56327 1.60197,0.56327 0.699349,0 1.23162,-0.18603 1.5968,-0.55812 0.365181,-0.37552 0.54777,-0.9009 0.54777,-1.57612 v -3.41582 c 0,-0.67868 -0.182589,-1.20404 -0.54777,-1.57612 -0.361741,-0.37206 -0.894001,-0.55812 -1.5968,-0.55812 z m 5.70456,0.093 -1.632461,3.23493 c -0.0241,0.0483 -0.0482,0.0982 -0.0724,0.14989 -0.0241,0.0482 -0.0465,0.0982 -0.0672,0.14986 -0.12401,0.29628 -0.218749,0.59772 -0.28422,0.90432 -0.0655,0.30662 -0.0982,0.59946 -0.0982,0.87849 v 0.005 c 0,0.47886 0.081,0.88881 0.242882,1.22988 0.16537,0.33761 0.404799,0.596 0.718299,0.77515 0.31338,0.17563 0.69098,0.26348 1.13172,0.26356 0.440741,-8e-5 0.817809,-0.0896 1.131189,-0.26872 0.31695,-0.17914 0.556372,-0.44098 0.718302,-0.78549 0.165359,-0.34451 0.248039,-0.75793 0.248039,-1.24023 v -0.005 c 0,-0.47199 -0.0724,-0.87505 -0.217041,-1.20922 -0.14469,-0.33764 -0.35656,-0.59429 -0.635619,-0.76999 -0.27905,-0.17569 -0.61323,-0.26355 -1.002519,-0.26355 -0.220491,0 -0.413422,0.0448 -0.578782,0.13435 -0.0525,0.0284 -0.0991,0.062 -0.14366,0.0977 l 1.67845,-3.28094 z m -5.70456,0.90951 c 0.37551,0 0.651118,0.0982 0.82682,0.29456 0.175699,0.19291 0.263549,0.47196 0.263549,0.83714 v 3.41582 c 0,0.36518 -0.0896,0.64596 -0.268719,0.84233 -0.175702,0.19291 -0.44958,0.28938 -0.82165,0.28938 -0.37207,0 -0.647681,-0.0965 -0.82682,-0.28938 -0.175699,-0.19637 -0.263549,-0.47715 -0.263549,-0.84233 v -3.41582 c 0,-0.36518 0.0879,-0.64423 0.263549,-0.83714 0.175688,-0.19637 0.45131,-0.29456 0.82682,-0.29456 z m 5.591389,3.15224 c 0.351391,0 0.62184,0.11544 0.811321,0.34624 0.189479,0.22738 0.284221,0.55123 0.284221,0.97152 v 0.005 c 0,0.38243 -0.0913,0.67696 -0.273891,0.88368 -0.179139,0.20669 -0.435801,0.31006 -0.76997,0.31006 -0.330731,0 -0.587401,-0.10165 -0.769979,-0.3049 -0.179152,-0.20669 -0.268722,-0.50125 -0.268722,-0.88366 v -0.005 c 0,-0.42029 0.0861,-0.74586 0.258382,-0.97668 0.172249,-0.2308 0.415128,-0.34624 0.728638,-0.34624 z"
         style="font-size:10.5833px;line-height:1.25;font-family:Bahnschrift;-inkscape-font-specification:Bahnschrift;stroke-width:0.264583"
         id="path4496" />
      <path
         d="m 45.431235,216.6397 c -0.699352,0 -1.231623,0.18778 -1.5968,0.56327 -0.365181,0.37209 -0.547773,0.89573 -0.547773,1.57097 v 3.41582 c 0,0.67178 0.180872,1.19544 0.542603,1.57097 0.365177,0.37549 0.899167,0.56327 1.60197,0.56327 0.69936,0 1.231627,-0.18603 1.596808,-0.55812 0.36517,-0.37549 0.547769,-0.9009 0.547769,-1.57612 v -3.41582 c 0,-0.67868 -0.182599,-1.20407 -0.547769,-1.57613 -0.361739,-0.37205 -0.894009,-0.55811 -1.596808,-0.55811 z m 3.498498,0.093 v 2.08256 h 1.0542 v -1.08005 h 1.91202 l -1.943029,6.51124 h 1.121378 l 1.943032,-6.57323 v -0.94052 z m -3.498498,0.90951 c 0.375517,0 0.651129,0.0982 0.826828,0.29456 0.175691,0.19291 0.263541,0.47197 0.263541,0.83714 v 3.41582 c 0,0.36518 -0.0896,0.64596 -0.268711,0.84233 -0.175699,0.19291 -0.449591,0.28938 -0.821658,0.28938 -0.372071,0 -0.647682,-0.0965 -0.826821,-0.28938 -0.175702,-0.19637 -0.263551,-0.47715 -0.263551,-0.84233 v -3.41582 c 0,-0.36517 0.0879,-0.64423 0.263551,-0.83714 0.1757,-0.19637 0.451308,-0.29456 0.826821,-0.29456 z"
         style="font-size:10.5833px;line-height:1.25;font-family:Bahnschrift;-inkscape-font-specification:Bahnschrift;stroke-width:0.264583"
         id="path4501" />
      <path
         d="m 28.303053,199.81126 c -0.69935,0 -1.23162,0.18775 -1.5968,0.56327 -0.36518,0.37206 -0.54777,0.89573 -0.54777,1.57097 v 3.4158 c 0,0.6718 0.18086,1.19546 0.54261,1.57096 0.36517,0.37552 0.89916,0.56327 1.60196,0.56327 0.69936,0 1.23163,-0.18603 1.59681,-0.55808 0.36517,-0.37553 0.54777,-0.90091 0.54777,-1.57615 v -3.4158 c 0,-0.67868 -0.1826,-1.20407 -0.54777,-1.57612 -0.36174,-0.37209 -0.894,-0.55812 -1.59681,-0.55812 z m 5.90662,0.0155 c -0.42375,0 -0.79582,0.0827 -1.11621,0.24804 -0.32039,0.16193 -0.56844,0.39273 -0.74414,0.69247 -0.1757,0.29626 -0.26355,0.64077 -0.26355,1.03352 v 0.18087 c 0,0.30316 0.0792,0.59256 0.23771,0.86817 0.16192,0.27215 0.37551,0.48059 0.64079,0.62527 -0.31351,0.16883 -0.565,0.41859 -0.75448,0.74932 -0.18604,0.33073 -0.27905,0.68385 -0.27905,1.05937 v 0.12401 c 0,0.41685 0.093,0.78377 0.27905,1.10072 0.18948,0.3135 0.45648,0.55636 0.80099,0.72864 0.34451,0.17224 0.74414,0.25836 1.19889,0.25836 0.45475,0 0.85438,-0.0861 1.19889,-0.25836 0.34451,-0.17228 0.60979,-0.41514 0.79582,-0.72864 0.18948,-0.31695 0.28422,-0.68387 0.28422,-1.10072 v -0.12401 c 0,-0.37552 -0.0965,-0.72692 -0.28939,-1.05421 -0.18948,-0.33073 -0.44269,-0.58221 -0.75964,-0.75448 0.26872,-0.14124 0.48404,-0.34796 0.64596,-0.62011 0.16535,-0.27217 0.24804,-0.56327 0.24804,-0.87333 v -0.18087 c 0,-0.39275 -0.0878,-0.73726 -0.26355,-1.03352 -0.1757,-0.29974 -0.42374,-0.53054 -0.74414,-0.69247 -0.32039,-0.16536 -0.69247,-0.24804 -1.11621,-0.24804 z m -5.90662,0.987 c 0.37552,0 0.65113,0.0982 0.82683,0.29456 0.1757,0.19293 0.26355,0.47199 0.26355,0.83717 v 3.4158 c 0,0.36517 -0.0896,0.64598 -0.26872,0.84232 -0.1757,0.19294 -0.44959,0.2894 -0.82166,0.2894 -0.37206,0 -0.64767,-0.0965 -0.82682,-0.2894 -0.1757,-0.19634 -0.26355,-0.47715 -0.26355,-0.84232 v -3.4158 c 0,-0.36518 0.0878,-0.64424 0.26355,-0.83717 0.1757,-0.19637 0.45131,-0.29456 0.82682,-0.29456 z m 5.90662,0.0259 c 0.21015,0 0.39619,0.0448 0.55811,0.13435 0.16192,0.0861 0.28766,0.21016 0.37723,0.37209 0.0896,0.1619 0.13436,0.34795 0.13436,0.55808 v 0.0724 c 0,0.22048 -0.0448,0.41513 -0.13436,0.58394 -0.0896,0.1688 -0.21531,0.29972 -0.37723,0.39275 -0.16192,0.0896 -0.34796,0.13435 -0.55811,0.13435 -0.21015,0 -0.39618,-0.0448 -0.5581,-0.13435 -0.16192,-0.093 -0.28768,-0.22223 -0.37724,-0.38759 -0.0896,-0.1688 -0.13436,-0.36174 -0.13436,-0.57878 v -0.0775 c 0,-0.2136 0.0448,-0.40137 0.13436,-0.56327 0.0896,-0.16192 0.21532,-0.28596 0.37724,-0.37208 0.16192,-0.0896 0.34795,-0.13436 0.5581,-0.13436 z m 0,3.26078 c 0.2446,0 0.45992,0.0482 0.64596,0.1447 0.18603,0.0965 0.329,0.23254 0.42891,0.40825 0.10335,0.17224 0.15503,0.37378 0.15503,0.6046 v 0.0724 c 0,0.22735 -0.0517,0.42889 -0.15503,0.6046 -0.0999,0.17227 -0.24288,0.30662 -0.42891,0.40306 -0.18604,0.0965 -0.40136,0.1447 -0.64596,0.1447 -0.2446,0 -0.45992,-0.0465 -0.64595,-0.13951 -0.18604,-0.0965 -0.33073,-0.23082 -0.43409,-0.40309 -0.0999,-0.17225 -0.14986,-0.37206 -0.14986,-0.59944 v -0.0775 c 0,-0.2308 0.05,-0.43408 0.14986,-0.60976 0.10336,-0.17571 0.24805,-0.31179 0.43409,-0.40825 0.18603,-0.0965 0.40135,-0.14471 0.64595,-0.1447 z"
         style="font-size:10.5833px;line-height:1.25;font-family:Bahnschrift;-inkscape-font-specification:Bahnschrift;stroke-width:0.264583"
         id="path4506" />
      <path
         d="m 22.364843,176.82316 c -0.69936,0 -1.23163,0.18778 -1.59681,0.56327 -0.36517,0.37209 -0.54777,0.89575 -0.54777,1.57097 v 3.41582 c 0,0.6718 0.18087,1.19544 0.54261,1.57096 0.36518,0.37553 0.89917,0.56327 1.60197,0.56327 0.69935,0 1.23162,-0.18602 1.5968,-0.55811 0.36518,-0.37549 0.54777,-0.90088 0.54777,-1.57612 v -3.41582 c 0,-0.67866 -0.18259,-1.20407 -0.54777,-1.57613 -0.36173,-0.37208 -0.894,-0.55811 -1.5968,-0.55811 z m 5.64823,0.016 c -0.44097,0 -0.81993,0.0896 -1.13688,0.26872 -0.31351,0.17914 -0.55294,0.44098 -0.7183,0.78549 -0.16192,0.34451 -0.24288,0.75965 -0.24288,1.24539 v 0.005 c 0,0.43752 0.0741,0.82336 0.22221,1.15755 0.15157,0.33073 0.36345,0.58738 0.63562,0.76997 0.27216,0.18258 0.58739,0.27389 0.94568,0.27389 0.23771,0 0.44269,-0.0362 0.61494,-0.10853 0.0672,-0.029 0.12576,-0.0659 0.17984,-0.10697 l -1.67329,3.30057 h 1.13689 l 1.60196,-3.21942 c 0.0241,-0.0448 0.0465,-0.0896 0.0672,-0.13436 0.0207,-0.0482 0.0413,-0.0947 0.062,-0.13954 0.12746,-0.29972 0.22565,-0.60116 0.29455,-0.90434 0.0689,-0.3066 0.10336,-0.59428 0.10336,-0.863 v -0.005 c 0,-0.48919 -0.0827,-0.90779 -0.24805,-1.25574 -0.16192,-0.34795 -0.39964,-0.61323 -0.71314,-0.79582 -0.3135,-0.18258 -0.69074,-0.27387 -1.13171,-0.27387 z m -5.64823,0.9865 c 0.37551,0 0.65112,0.0982 0.82682,0.29456 0.1757,0.19291 0.26355,0.47199 0.26355,0.83715 v 3.41582 c 0,0.36518 -0.0896,0.64595 -0.26872,0.84233 -0.1757,0.19293 -0.44959,0.28937 -0.82165,0.28937 -0.37207,0 -0.64768,-0.0964 -0.82683,-0.28937 -0.1757,-0.19638 -0.26355,-0.47715 -0.26355,-0.84233 v -3.41582 c 0,-0.36516 0.0879,-0.64424 0.26355,-0.83715 0.1757,-0.19637 0.45131,-0.29456 0.82683,-0.29456 z m 5.64823,0.0264 c 0.33073,0 0.58566,0.10853 0.76481,0.32557 0.18259,0.21703 0.27389,0.52363 0.27389,0.91982 v 0.005 c 0,0.40653 -0.0913,0.72175 -0.27389,0.94567 -0.17915,0.22394 -0.43408,0.33592 -0.76481,0.33592 -0.33417,0 -0.59255,-0.11026 -0.77515,-0.33073 -0.17914,-0.22395 -0.26871,-0.53917 -0.26871,-0.9457 v -0.005 c 0,-0.39966 0.0896,-0.70798 0.26871,-0.92501 0.1826,-0.21704 0.44098,-0.32557 0.77515,-0.32557 z"
         style="font-size:10.5833px;line-height:1.25;font-family:Bahnschrift;-inkscape-font-specification:Bahnschrift;stroke-width:0.264583"
         id="path4511" />
      <path
         d="m 33.261323,153.84993 c -0.69936,0 -1.23162,0.18778 -1.5968,0.56327 -0.36518,0.37209 -0.54777,0.89575 -0.54777,1.57097 v 3.41582 c 0,0.67178 0.18086,1.19544 0.5426,1.57096 0.36518,0.3755 0.89917,0.56328 1.60197,0.56328 0.69935,0 1.23162,-0.18603 1.5968,-0.55812 0.36518,-0.37549 0.54777,-0.90088 0.54777,-1.57612 v -3.41582 c 0,-0.67869 -0.18259,-1.20407 -0.54777,-1.57613 -0.36174,-0.37208 -0.894,-0.55811 -1.5968,-0.55811 z m -4.89893,0.093 -1.0697,0.71313 v 1.09038 l 1.0697,-0.6563 v 6.36653 h 1.0542 v -7.51374 z m 4.89893,0.90951 c 0.37551,0 0.65112,0.0982 0.82682,0.29456 0.1757,0.1929 0.26355,0.47196 0.26355,0.83714 v 3.41582 c 0,0.36518 -0.0896,0.64596 -0.26872,0.84233 -0.1757,0.19291 -0.44959,0.28937 -0.82165,0.28937 -0.37207,0 -0.64768,-0.0965 -0.82683,-0.28937 -0.17569,-0.19637 -0.26355,-0.47715 -0.26355,-0.84233 v -3.41582 c 0,-0.36518 0.0879,-0.64424 0.26355,-0.83714 0.1757,-0.19638 0.45132,-0.29456 0.82683,-0.29456 z"
         style="font-size:10.5833px;line-height:1.25;font-family:Bahnschrift;-inkscape-font-specification:Bahnschrift;stroke-width:0.264583"
         id="path4516" />
      <path
         d="m 46.417615,137.11763 -1.069703,0.71313 v 1.09038 l 1.069703,-0.65627 v 6.36653 h 1.054197 v -7.51377 z m 3.514,0 -1.069703,0.71313 v 1.09038 l 1.069703,-0.65627 v 6.36653 h 1.054197 v -7.51377 z"
         style="font-size:10.5833px;line-height:1.25;font-family:Bahnschrift;-inkscape-font-specification:Bahnschrift;stroke-width:0.264583"
         id="path4521" />
      <path
         d="m 72.953934,130.92247 c -0.39619,0 -0.745871,0.081 -1.049041,0.24288 -0.30316,0.15846 -0.551209,0.39101 -0.744138,0.69763 -0.189482,0.30316 -0.31523,0.67006 -0.377233,1.10072 v 0.005 h 1.090372 v -0.005 c 0.0413,-0.33075 0.15675,-0.58568 0.346228,-0.76483 0.189482,-0.18259 0.437531,-0.27387 0.744141,-0.27387 0.323832,0 0.573611,0.0827 0.749311,0.24805 0.175699,0.16536 0.263549,0.3979 0.263549,0.69762 v 0.0103 c 0,0.18603 -0.0431,0.38756 -0.129189,0.6046 -0.0827,0.2136 -0.19981,0.42032 -0.351401,0.62013 l -2.619999,3.49332 v 0.91466 h 4.237469 v -1.0025 h -2.842199 l 2.175578,-2.9559 c 0.196361,-0.26871 0.349671,-0.54777 0.459923,-0.83717 0.110239,-0.28937 0.165359,-0.56671 0.165359,-0.83198 v -0.005 c 0,-0.41341 -0.0827,-0.76655 -0.248049,-1.05937 -0.165362,-0.29284 -0.406511,-0.51506 -0.723472,-0.66664 -0.316939,-0.15502 -0.699349,-0.23254 -1.147209,-0.23254 z m -4.718061,0.0775 -1.06971,0.71313 v 1.09038 l 1.06971,-0.6563 v 6.36653 h 1.054201 v -7.51374 z"
         style="font-size:10.5833px;line-height:1.25;font-family:Bahnschrift;-inkscape-font-specification:Bahnschrift;stroke-width:0.264583"
         id="path4466" />
      <path
         id="path2562-6-2-4-5"
         style="color:#000000;font-style:normal;font-variant:normal;font-weight:normal;font-stretch:normal;font-size:medium;line-height:normal;font-family:sans-serif;font-variant-ligatures:normal;font-variant-position:normal;font-variant-caps:normal;font-variant-numeric:normal;font-variant-alternates:normal;font-variant-east-asian:normal;font-feature-settings:normal;font-variation-settings:normal;text-indent:0;text-align:start;text-decoration:none;text-decoration-line:none;text-decoration-style:solid;text-decoration-color:#000000;letter-spacing:normal;word-spacing:normal;text-transform:none;writing-mode:lr-tb;direction:ltr;text-orientation:mixed;dominant-baseline:auto;baseline-shift:baseline;text-anchor:start;white-space:normal;shape-padding:0;shape-margin:0;inline-size:0;clip-rule:nonzero;display:inline;overflow:visible;visibility:visible;opacity:1;isolation:auto;mix-blend-mode:normal;color-interpolation:sRGB;color-interpolation-filters:linearRGB;solid-color:#000000;solid-opacity:1;vector-effect:none;fill:#000000;fill-opacity:1;fill-rule:nonzero;stroke:none;stroke-width:0.706001;stroke-linecap:butt;stroke-linejoin:miter;stroke-miterlimit:4;stroke-dasharray:none;stroke-dashoffset:0;stroke-opacity:1;color-rendering:auto;image-rendering:auto;shape-rendering:auto;text-rendering:auto;enable-background:accumulate;stop-color:#000000;stop-opacity:1"
         d="m 63.796623,122.19083 -0.699188,0.0925 0.577209,4.3832 a 54.512959,54.512959 0 0 1 0.699188,-0.092 z m 14.685401,0 -0.577241,4.3832 a 54.512959,54.512959 0 0 1 0.69919,0.0925 l 0.57721,-4.3832 z m -29.568222,3.89329 -0.652669,0.26923 1.691881,4.08501 a 54.512959,54.512959 0 0 1 0.652669,-0.26973 z m 44.453106,0 -1.6919,4.08451 a 54.512959,54.512959 0 0 1 0.65164,0.26973 l 1.69241,-4.08501 z m -57.822325,7.61297 -0.56069,0.42994 2.69079,3.50679 a 54.512959,54.512959 0 0 1 0.56069,-0.42995 z m 71.191537,0 -2.69131,3.50729 a 54.512959,54.512959 0 0 1 0.56068,0.42944 l 2.69081,-3.50679 z m -82.137117,10.81277 -0.42943,0.5607 3.50779,2.69183 a 54.512959,54.512959 0 0 1 0.42995,-0.56069 z m 93.080107,0 -3.50727,2.69132 a 54.512959,54.512959 0 0 1 0.42995,0.56017 l 3.50726,-2.69079 z m -100.851217,13.27725 -0.26975,0.65214 4.08451,1.69191 a 54.512959,54.512959 0 0 1 0.27027,-0.65217 z m 108.622847,0 -4.08347,1.69137 a 54.512959,54.512959 0 0 1 0.27027,0.65268 l 4.0845,-1.69191 z m -112.693397,14.83578 -0.092,0.70124 4.38319,0.57724 a 54.512959,54.512959 0 0 1 0.0925,-0.70125 z m 116.765497,0 -4.3837,0.57723 a 54.512959,54.512959 0 0 1 0.0925,0.70125 l 4.38319,-0.57724 z m -112.474287,14.80787 -4.38319,0.57724 0.092,0.70125 4.38371,-0.57724 a 54.512959,54.512959 0 0 1 -0.0925,-0.70125 z m 108.183087,0 a 54.512959,54.512959 0 0 1 -0.0925,0.70125 l 4.3837,0.57724 0.092,-0.70125 z m -104.588987,13.76972 -4.08451,1.69187 0.26975,0.65267 4.08503,-1.69188 a 54.512959,54.512959 0 0 1 -0.27027,-0.65266 z m 100.994887,0 a 54.512959,54.512959 0 0 1 -0.2708,0.65319 l 4.084,1.69135 0.2713,-0.65267 z m -93.959657,12.36927 -3.50831,2.69182 0.42943,0.5607 3.50883,-2.69234 a 54.512959,54.512959 0 0 1 -0.42995,-0.56018 z m 86.923907,0 a 54.512959,54.512959 0 0 1 -0.42995,0.56017 l 3.50727,2.69132 0.42994,-0.5607 z m -76.926587,10.12703 -2.69131,3.50729 0.56069,0.42995 2.69131,-3.5073 a 54.512959,54.512959 0 0 1 -0.56069,-0.42994 z m 66.929787,0 a 54.512959,54.512959 0 0 1 -0.56018,0.42994 l 2.69131,3.5073 0.56018,-0.42995 z m -54.651476,7.19543 -1.692381,4.08552 0.652669,0.26924 1.691881,-4.0845 a 54.512959,54.512959 0 0 1 -0.652169,-0.27026 z m 42.373134,0 a 54.512959,54.512959 0 0 1 -0.65164,0.26973 l 1.6919,4.08503 0.65215,-0.26924 z m -28.652004,3.77187 -0.577209,4.38369 0.699188,0.092 0.577209,-4.38372 a 54.512959,54.512959 0 0 1 -0.699188,-0.092 z m 14.929329,0 a 54.512959,54.512959 0 0 1 -0.69919,0.0925 l 0.577241,4.38319 0.699159,-0.092 z" />
    </g>
  </g>
</svg>
